<svg id="Capa_1" data-name="Capa 1" xmlns="http://www.w3.org/2000/svg" viewBox="0 0 995.87 347.21"><defs><style>.cls-1{fill:#fff;}</style></defs><rect class="cls-1" x="819.57" y="30.25" width="146.06" height="146.06" transform="translate(334.46 -600.91) rotate(45)"/><rect class="cls-1" x="30.25" y="170.9" width="146.06" height="146.06" transform="translate(202.74 -1.58) rotate(45)"/><rect class="cls-1" x="692.84" y="90.77" width="108.81" height="108.81" transform="translate(321.52 -485.86) rotate(45)"/><rect class="cls-1" x="775.12" y="173.06" width="108.81" height="108.81" transform="translate(403.8 -519.94) rotate(45)"/><rect class="cls-1" x="752.27" y="19.77" width="64.7" height="64.7" transform="translate(266.67 -539.54) rotate(45)"/><rect class="cls-1" x="178.98" y="122.67" width="121" height="121" transform="translate(199.66 -115.69) rotate(45)"/><rect class="cls-1" x="109.48" y="79.73" width="78.41" height="78.41" transform="translate(127.65 -70.3) rotate(45)"/><rect class="cls-1" x="22.17" y="105.06" width="64.7" height="64.7" transform="translate(113.14 1.69) rotate(45)"/><rect class="cls-1" x="64.89" y="28.36" width="64.7" height="64.7" transform="translate(71.41 -50.98) rotate(45)"/></svg>