<svg xmlns="http://www.w3.org/2000/svg" xmlns:xlink="http://www.w3.org/1999/xlink" viewBox="0 0 690.99 297.85"><defs><style>.cls-1{fill:#fff;}.cls-2{isolation:isolate;}.cls-3{clip-path:url(#clip-path);}.cls-4{fill:#001026;opacity:0.9;}.cls-4,.cls-7,.cls-8,.cls-9{mix-blend-mode:multiply;}.cls-5,.cls-7{fill:#0b7acf;}.cls-6{opacity:0.5;}.cls-7,.cls-8{opacity:0.7;}.cls-8{fill:#606975;}.cls-9{opacity:0.3;}.cls-10{fill:#182b45;}</style><clipPath id="clip-path"><rect class="cls-1" x="71.63" y="45.43" width="561.6" height="216"/></clipPath></defs><g class="cls-2"><g id="Layer_1" data-name="Layer 1"><rect class="cls-1" x="71.63" y="45.43" width="561.6" height="216"/><g class="cls-3"><polygon class="cls-4" points="486.43 1.7 201.12 287.01 0 287.01 0 0 486.43 1.7"/></g><image width="5472" height="3648" transform="translate(407.42 24.67) scale(0.06)" xlink:href="alex-suprun-A53o1drQS2k-unsplash.jpg"/><rect class="cls-5" x="160.87" y="108.79" width="141.6" height="141.6" rx="19.22" transform="translate(-59.14 216.42) rotate(-45)"/><g class="cls-6"><path class="cls-5" d="M157.39,263.22a19.85,19.85,0,0,1-14.08-5.82L70,184a19.93,19.93,0,0,1,0-28.15l73.35-73.36a19.94,19.94,0,0,1,28.16,0l73.36,73.36a19.93,19.93,0,0,1,0,28.15L171.47,257.4A19.85,19.85,0,0,1,157.39,263.22Zm0-185.34a18.69,18.69,0,0,0-13.25,5.48L70.79,156.71a18.76,18.76,0,0,0,0,26.51l73.35,73.35a18.76,18.76,0,0,0,26.51,0L244,183.22a18.76,18.76,0,0,0,0-26.51L170.65,83.36A18.73,18.73,0,0,0,157.39,77.88Z"/></g><g class="cls-6"><path class="cls-5" d="M380.88,177.92a13.74,13.74,0,0,1-9.78-4l-50.29-50.29a13.83,13.83,0,0,1,0-19.56L371.1,53.73a13.85,13.85,0,0,1,19.56,0L441,104a13.85,13.85,0,0,1,0,19.56l-50.29,50.29A13.75,13.75,0,0,1,380.88,177.92Zm0-127.06a12.64,12.64,0,0,0-9,3.7l-50.28,50.29a12.67,12.67,0,0,0,0,17.91L371.92,173a12.66,12.66,0,0,0,17.91,0l50.29-50.28a12.67,12.67,0,0,0,0-17.91L389.83,54.56A12.6,12.6,0,0,0,380.88,50.86Z"/></g><path class="cls-7" d="M452.36,161.55l-94-94a24.78,24.78,0,0,0-35,0l-94,94a24.78,24.78,0,0,0,0,35l94,94a24.76,24.76,0,0,0,35,0l94-94A24.76,24.76,0,0,0,452.36,161.55Z"/><rect class="cls-8" x="129.2" y="28.98" width="121.23" height="121.23" rx="16.46" transform="translate(-7.76 160.46) rotate(-45)"/><g class="cls-9"><path class="cls-10" d="M120.39,168.31a12.73,12.73,0,0,1-9.06-3.75l-46.4-46.4a12.82,12.82,0,0,1,0-18.12l46.4-46.4a12.82,12.82,0,0,1,18.12,0l46.4,46.4a12.82,12.82,0,0,1,0,18.12l-46.4,46.4A12.73,12.73,0,0,1,120.39,168.31Zm0-117.25a11.56,11.56,0,0,0-8.23,3.41l-46.4,46.4a11.65,11.65,0,0,0,0,16.46l46.4,46.4a11.64,11.64,0,0,0,16.46,0l46.4-46.4a11.64,11.64,0,0,0,0-16.46l-46.4-46.4A11.56,11.56,0,0,0,120.39,51.06Z"/></g><g class="cls-9"><path class="cls-10" d="M281.86,176.5a12.73,12.73,0,0,1-9.06-3.75l-46.4-46.4a12.82,12.82,0,0,1,0-18.12l46.4-46.4a12.82,12.82,0,0,1,18.12,0l46.4,46.4a12.82,12.82,0,0,1,0,18.12l-46.4,46.4A12.73,12.73,0,0,1,281.86,176.5Zm0-117.25a11.56,11.56,0,0,0-8.23,3.41l-46.4,46.4a11.65,11.65,0,0,0,0,16.46l46.4,46.4a11.64,11.64,0,0,0,16.46,0l46.4-46.4a11.64,11.64,0,0,0,0-16.46l-46.4-46.4A11.56,11.56,0,0,0,281.86,59.25Z"/></g></g></g></svg>